<?xml version="1.0" standalone="no"?><!DOCTYPE svg PUBLIC "-//W3C//DTD SVG 1.1//EN" "http://www.w3.org/Graphics/SVG/1.1/DTD/svg11.dtd"><svg t="1583510259787" class="icon" viewBox="0 0 1024 1024" version="1.1" xmlns="http://www.w3.org/2000/svg" p-id="5852" xmlns:xlink="http://www.w3.org/1999/xlink" width="16" height="16"><defs><style type="text/css"></style></defs><path d="M136.533333 512c0 133.12 71.68 259.413333 187.733334 324.266667s259.413333 68.266667 375.466666 0S887.466667 645.12 887.466667 512c0-133.12-71.68-259.413333-187.733334-324.266667s-259.413333-68.266667-375.466666 0S136.533333 378.88 136.533333 512z" fill="#D64B24" p-id="5853"></path><path d="M399.36 354.986667l40.96 85.333333 88.746667 13.653333-64.853334 64.853334 13.653334 92.16-78.506667-44.373334-78.506667 44.373334 13.653334-92.16L273.066667 453.973333l88.746666-13.653333 37.546667-85.333333zM600.746667 238.933333l13.653333 27.306667 27.306667 3.413333-20.48 20.48 3.413333 27.306667-23.893333-13.653333-23.893334 13.653333 3.413334-27.306667-20.48-20.48 27.306666-3.413333 13.653334-27.306667z m109.226666 129.706667l13.653334 27.306667 27.306666 3.413333-20.48 20.48 3.413334 27.306667-23.893334-13.653334-23.893333 13.653334 3.413333-27.306667-20.48-20.48 27.306667-3.413333 13.653333-27.306667z m-13.653333 208.213333l13.653333 27.306667 27.306667 3.413333-20.48 20.48 3.413333 27.306667-23.893333-13.653333-23.893333 13.653333 3.413333-27.306667-20.48-20.48 27.306667-3.413333 13.653333-27.306667z m-122.88 129.706667l13.653333 27.306667 27.306667 3.413333-20.48 20.48 3.413333 27.306667-23.893333-13.653334-23.893333 13.653334 3.413333-27.306667-20.48-20.48 27.306667-3.413333 13.653333-27.306667z" fill="#FFDD00" p-id="5854"></path></svg>