<?xml version="1.0" standalone="no"?><!DOCTYPE svg PUBLIC "-//W3C//DTD SVG 1.1//EN" "http://www.w3.org/Graphics/SVG/1.1/DTD/svg11.dtd"><svg t="1583288857599" class="icon" viewBox="0 0 1092 1024" version="1.1" xmlns="http://www.w3.org/2000/svg" p-id="12800" width="34.125" height="32" xmlns:xlink="http://www.w3.org/1999/xlink"><defs><style type="text/css"></style></defs><path d="M989.33671 1023.522356h-887.052709c-56.498434 0-102.352236-46.058506-102.352236-102.829879V102.829879c0-56.839608 45.853802-102.829879 102.352236-102.829879h887.052709c56.566669 0 102.352236 45.990271 102.352235 102.829879v817.862598c0 56.771373-45.785567 102.829879-102.352235 102.829879zM363.82808 73.079496h-218.351436v73.147731h218.351436V73.079496z m655.054308 146.227228V146.227227H509.441194v73.079497h-436.702872v73.147731h473.072033a255.266476 255.266476 0 0 0-254.720597 255.880589 255.402945 255.402945 0 0 0 314.767242 248.988872 253.697075 253.697075 0 0 0 187.85047-188.737523c38.075032-167.516492-87.613514-316.131938-247.897115-316.131938h473.072033V219.306724z m0 657.988405H72.738322v73.079496h946.144066V877.295129z m-518.379956-151.754248a181.504631 181.504631 0 0 1-131.147331-131.761445 182.869328 182.869328 0 0 1 221.763177-222.718464 181.641101 181.641101 0 0 1 131.147331 131.761444c32.82095 135.787299-86.521757 255.744119-221.763177 222.718465z m8.938762-323.433065c-60.183115 0-109.175718 49.197308-109.175718 109.653362a36.437396 36.437396 0 1 0 72.738322 0c0-20.197508 16.308123-36.573866 36.437396-36.573865a36.369161 36.369161 0 0 0 36.369161-36.573866 36.369161 36.369161 0 0 0-36.369161-36.505631z" p-id="12801" fill="#1296db"></path></svg>