<?xml version="1.0" standalone="no"?><!DOCTYPE svg PUBLIC "-//W3C//DTD SVG 1.1//EN" "http://www.w3.org/Graphics/SVG/1.1/DTD/svg11.dtd"><svg t="1584005674940" class="icon" viewBox="0 0 1024 1024" version="1.1" xmlns="http://www.w3.org/2000/svg" p-id="5986" width="32" height="32" xmlns:xlink="http://www.w3.org/1999/xlink"><defs><style type="text/css"></style></defs><path d="M512 5.12C233.2672 5.12 5.12 233.1648 5.12 512c0 278.7328 228.0448 506.88 506.88 506.88 278.7328 0 506.88-228.1472 506.88-506.88C1018.88 233.1648 790.7328 5.12 512 5.12z m190.0544 578.6624c-10.5472 10.5472-29.5936 10.5472-40.1408 0L541.5936 463.4624v333.7216c0 14.7456-12.6976 27.4432-27.4432 27.4432-15.0528-0.2048-27.2384-12.3904-27.4432-27.4432v-335.872L364.1344 583.7824c-10.5472 10.5472-27.4432 10.5472-40.1408 0-10.5472-10.5472-10.5472-27.4432 0-40.1408L514.048 353.5872l187.904 187.904c10.6496 12.6976 10.6496 31.744 0.1024 42.2912z m14.848-270.336c0 14.848-12.6976 27.4432-27.4432 27.4432H334.5408c-15.0528-0.2048-27.2384-12.3904-27.4432-27.4432 0-14.7456 12.6976-27.4432 27.4432-27.4432h356.9664c12.6976-2.1504 25.3952 10.5472 25.3952 27.4432z m0 0" p-id="5987" fill="#1296E5"></path></svg>