<?xml version="1.0" standalone="no"?><!DOCTYPE svg PUBLIC "-//W3C//DTD SVG 1.1//EN" "http://www.w3.org/Graphics/SVG/1.1/DTD/svg11.dtd"><svg t="1583507615534" class="icon" viewBox="0 0 1024 1024" version="1.1" xmlns="http://www.w3.org/2000/svg" p-id="4128" xmlns:xlink="http://www.w3.org/1999/xlink" width="16" height="16"><defs><style type="text/css"></style></defs><path d="M922.296155 338.383824c-22.588461-53.40635-54.926984-101.370759-96.115058-142.558833-41.190121-41.189098-89.153506-73.52762-142.559856-96.116081-55.29435-23.38664-114.031103-35.245735-174.576037-35.245735-60.545958 0-119.281687 11.859096-174.575014 35.245735-53.40635 22.588461-101.370759 54.926984-142.558833 96.116081-41.189098 41.188074-73.52762 89.151459-96.116081 142.558833-23.38664 55.293327-35.244712 114.029056-35.244712 174.575014 0 60.544935 11.858072 119.280664 35.244712 174.575014 22.588461 53.407374 54.926984 101.371782 96.116081 142.559856 41.188074 41.188074 89.151459 73.526597 142.558833 96.117105 55.293327 23.38664 114.029056 35.243689 174.575014 35.243689 60.544935 0 119.280664-11.858072 174.576037-35.243689 53.405327-22.590508 101.369735-54.92903 142.559856-96.117105 41.188074-41.188074 73.526597-89.151459 96.115058-142.559856 23.387663-55.29435 35.245735-114.031103 35.245735-174.575014C957.541891 452.41288 945.683818 393.678174 922.296155 338.383824zM509.046227 958.554452c-245.701958 0-445.594591-199.894679-445.594591-445.595614 0-245.700935 199.892633-445.593568 445.594591-445.593568 245.700935 0 445.595614 199.892633 445.595614 445.593568C954.641841 758.659773 754.748185 958.554452 509.046227 958.554452zM928.618141 461.937814c-76.138074 0-152.277172 0-228.417293 0-0.379647 0-0.763386-0.013303-8.04421-0.027629l0-1.194198c-0.385786-0.722454-0.545422-1.750877-0.530073-3.13234 0.190335-18.071587 0.079818-36.145222 0.096191-54.216809 0.002047-1.296529 0.140193-2.593058 0.2415-4.39817 0.064468 0 0.127913 0 0.192382 0 83.548858 0 153.919579 0 224.27802 0-5.894244-21.488407-13.443174-42.301432-22.508643-62.284555-62.899562 0-125.806287 0-201.769376 0-0.149403 0-0.295735 0-0.444115 0 0-2.143826 0-3.740184 0-5.339612 0-16.868179-0.037862-33.736359 0.016373-50.603515 0.01228-3.773953-0.224104-5.458315 0.427742-6.200212l0-0.5137c59.925834-0.00307 113.276926 0 166.624948-0.002047-15.135722-22.307052-32.343639-43.096541-51.353598-62.08808-36.231179 0-72.464405 0-115.27135 0-0.020466 0-0.041956 0-0.065492 0 0-21.218254 0-41.87369 0-62.925145 0.021489 0 0.044002 0 0.065492 0 11.328 0 27.623128 0 34.998095 0-9.247618-5.600555-25.305339-14.107299-34.998095-18.999726-16.131399-7.7935-32.833803-14.58416-50.02023-20.304442 0.465604 1.309832 0.925069 2.622734 1.356904 3.944845 2.916423 8.976442 2.90005 8.973372 12.403494 8.989745 2.136663 0.002047 4.273327 0.074701 6.407943 0.151449 0.211824 0.008186 0.415462 0.278339 1.245364 0.865717-3.403516 2.5071-6.491855 5.13802-9.923 7.193843-3.199878 1.919722-3.483334 4.111644-2.246157 7.306406 1.423419 3.659343 2.451842 7.470135 3.653203 11.214413-0.331551 0.277316-0.663102 0.552585-0.995677 0.826831-3.371794-2.419096-6.903224-4.650927-10.06524-7.322779-2.501984-2.122337-4.351098-2.163269-6.877641-0.034792-3.227508 2.708692-6.827499 4.971222-10.266831 7.42818-0.295735-0.215918-0.591471-0.430812-0.8913-0.648776 1.354857-4.25593 2.550079-8.574283 4.116761-12.753465 0.931209-2.484587 0.369414-3.9121-1.77032-5.340635-3.527336-2.355651-6.863315-4.991688-10.281157-7.506974 0.046049-0.462534 0.090051-0.925069 0.1361-1.385557 3.177366 0 6.357801-0.00307 9.535167 0 8.637728 0.004093 6.585999 0.416486 9.035794-6.480598 0.871857-2.459005 1.654686-4.948709 2.450818-7.432273-41.001833-13.307074-84.73487-20.503986-130.113383-20.503986-59.134819 0-115.465778 12.223393-166.610622 34.263361 1.517563 0.151449 3.469008 0.152473 6.069229 0.152473 1.970888 0 3.944845 0 5.915733 0 0.132006 0.402159 0.26299 0.806365 0.398066 1.209548-3.489474 2.576685-6.867408 5.326309-10.509355 7.668657-2.273786 1.466398-2.545986 3.056616-1.757017 5.364171 1.401929 4.116761 2.677992 8.276501 4.01136 12.418844-0.305969 0.282433-0.613984 0.565888-0.916882 0.845251-2.286066-1.584078-4.599761-3.127224-6.851035-4.759397-6.735401-4.885264-6.716982-4.89345-13.579273 0.031722-2.245134 1.612731-4.52199 3.182482-6.786567 4.771677-0.306992-0.191358-0.611937-0.382717-0.918929-0.576121 1.221828-3.965312 2.124384-8.068769 3.764744-11.856026 1.023306-2.364861 0.839111-3.930519-0.345877-5.278213-13.223163 6.604418-26.050306 13.885242-38.441521 21.791305 0.511653 1.428535 1.011027 2.859118 1.471514 4.301979 2.438539 7.689123 2.409886 7.696286 10.543124 7.696286 2.866281 0 5.731538 0 8.599865 0 0.127913 0.410346 0.254803 0.819668 0.379647 1.230014-3.455705 2.549056-6.823406 5.232165-10.407024 7.588839-2.252297 1.483794-2.938935 2.949168-1.935072 5.580089 1.544169 4.052293 2.700505 8.252964 4.025687 12.390191-0.303922 0.26913-0.597611 0.535189-0.898463 0.804319-3.275603-2.295276-6.730285-4.383844-9.772574-6.957459-2.735297-2.310625-4.844332-2.444679-7.619538-0.063445-3.114944 2.666736-6.634094 4.858658-10.873652 6.746658 1.362021-4.339842 2.478448-8.775874 4.170996-12.984732 1.043772-2.588965 0.312108-3.9121-1.710968-5.322216-2.736321-1.907443-5.403057-3.911076-8.080026-5.907547-10.582009 7.734148-20.790512 15.94925-30.596855 24.610514 0.952698 2.863211 1.955538 5.709025 2.841721 8.591679 2.288113 7.433296 2.270716 7.438413 9.924024 7.438413 3.085268 0 6.16542 0 9.251711 0 0.081864 0.428765 0.163729 0.860601 0.245593 1.288343-3.511987 2.571568-6.947226 5.247514-10.561543 7.670703-2.077312 1.394766-2.828418 2.660596-1.798972 5.246491 1.65264 4.158716 2.786463 8.525164 4.140297 12.803607-0.312108 0.254803-0.626263 0.51063-0.943488 0.765433-3.641947-2.632967-7.383154-5.14416-10.893094-7.949043-2.067079-1.648546-3.590781-1.500167-5.588275 0.074701-3.52222 2.77316-7.248078 5.293563-10.885931 7.919367-0.302899-0.205685-0.602727-0.411369-0.909719-0.618077 1.341554-4.248767 2.473331-8.577353 4.092201-12.720719 1.029446-2.632967 0.506537-4.091178-1.793856-5.601578-2.628874-1.725294-5.143137-3.625574-7.662517-5.519714-9.969049 10.055007-19.439748 20.608364-28.367071 31.618115 0.600681 1.799996 1.183965 3.606131 1.698688 5.430686 0.703011 2.495844 1.950422 3.472078 4.542456 3.372817 4.313236-0.166799 8.637728-0.046049 12.960173-0.046049 0.132006 0.437975 0.264013 0.87595 0.398066 1.314948-3.248997 2.390443-6.423293 4.892427-9.771551 7.129374-2.552126 1.703805-3.602038 3.325745-2.178619 6.550183 1.700735 3.852748 2.644223 8.040117 3.168156 12.888542-3.228531-2.323928-6.675026-4.40431-9.633405-7.033184-3.094478-2.750647-5.494131-2.645247-8.53642 0.071631-2.815115 2.52245-6.130627 4.485151-9.228175 6.695492-0.320295-0.215918-0.644683-0.433882-0.970094-0.649799 1.025353-3.344165 1.976004-6.711865 3.087315-10.023284 1.39272-4.13211 1.806135-5.328355 0.14224-7.002484-7.858992 10.871605-15.213493 22.13002-22.028713 33.741475 1.409093 0.008186 2.818185 0.016373 4.227278 0.016373 0.154519 0.453325 0.310062 0.906649 0.463558 1.358951-3.099594 2.25025-6.110161 4.64581-9.324366 6.714935-1.074472 1.926886-2.1295 3.864004-3.175319 5.809309 0.116657 0.467651 0.288572 0.964978 0.532119 1.50733 1.656733 3.704368 2.494821 7.77508 2.920516 12.355399-2.597151-1.842974-5.287423-3.576455-7.838525-5.475711-10.578939 20.794605-19.48989 42.576701-26.546609 65.170279 3.762697-0.025583 7.528464-0.107447 11.280928 0.064468 2.595105 0.119727 3.885494-0.837064 4.562922-3.288906 0.887206-3.203972 2.02103-6.349615 3.106758-9.498328 0.360204-1.045819 0.900509-2.032286 2.319835-3.010567 1.382487 4.076852 3.009544 8.094352 4.069689 12.253068 0.716314 2.806929 2.13871 3.65525 4.809539 3.527336 3.065825-0.149403 6.145977-0.073678 9.217942-0.019443 1.227967 0.021489 2.456958 0.248663 3.682879 0.384763 0.092098 0.339738 0.184195 0.677429 0.277316 1.017166-3.50994 2.565429-6.942109 5.242398-10.55438 7.650237-2.192945 1.461281-2.543939 2.963495-1.636267 5.389754 1.543146 4.088108 2.721994 8.315386 3.327792 13.266142-2.931772-2.035356-5.891174-4.027733-8.782014-6.116301-6.297426-4.544503-4.516874-3.830235-10.080589 0.00307-2.807952 1.936095-5.565762 3.940752-8.347109 5.91471-0.352017-0.199545-0.704035-0.397043-1.055029-0.597611 1.041726-3.440355 1.726318-7.043417 3.210112-10.278087 1.930979-4.208858 0.984421-6.825452-2.940982-9.096169-2.547009-1.469468-4.850471-3.358491-7.203052-5.164626-11.929704 39.017642-18.358113 80.415494-18.358113 123.286907 0 4.438079 0.077771 8.858762 0.213871 13.263072 199.13027 0.016373 398.262586 0.035816 597.393879 0.041956l0 0c16.177448 0 17.918092 0 19.660782 0 75.743078 0.002047 151.48718 0 227.230258 0.002047 0.1361-4.418636 0.215918-8.854669 0.215918-13.307074C931.40358 494.128981 930.457022 477.898321 928.618141 461.937814zM137.053957 487.214501c1.654686 3.891633 2.636037 8.069793 3.193739 12.917194-3.14155-2.213411-6.491855-4.193509-9.375531-6.703679-3.183506-2.777253-5.739724-2.901073-8.92937 0.007163-2.699482 2.466168-5.912663 4.360308-8.895601 6.505158-0.322341-0.206708-0.642636-0.412392-0.966001-0.6191 0.63752-2.323928 1.172709-4.679579 1.930979-6.963599 2.948145-8.924253 2.963495-8.904811-4.773723-14.513552-1.873674-1.353834-3.666506-2.820232-5.495154-4.237511 0.099261-0.413416 0.202615-0.826831 0.303922-1.240247 3.925403 0 7.886621-0.343831 11.759835 0.096191 3.977591 0.449231 5.450129-1.407046 6.381337-4.776793 1.038656-3.761674 2.406816-7.42818 3.63069-11.137665 0.450255 0.066515 0.901533 0.13303 1.354857 0.201591 1.3743 4.157693 2.912329 8.273431 4.058432 12.489452 0.661056 2.417049 1.912559 3.241834 4.276397 3.157923 3.210112-0.118704 6.42227-0.065492 9.628288-0.014326 1.239224 0.016373 2.476401 0.230244 3.715625 0.360204 0.088004 0.332575 0.170892 0.666172 0.25378 1.003863-3.302209 2.407839-6.545066 4.895497-9.927093 7.182586C136.780735 482.555387 135.748219 484.141512 137.053957 487.214501zM496.789065 268.112364c1.660826 4.155646 2.791579 8.519024 4.14439 12.795421-0.26606 0.240477-0.523933 0.477884-0.791016 0.716314-3.586688-2.583848-7.275707-5.042853-10.730389-7.79657-2.238994-1.786693-3.932566-1.917676-6.232958-0.00614-3.247974 2.699482-6.832615 4.990664-10.273994 7.454786-0.388856-0.218988-0.776689-0.436952-1.162476-0.653893 1.212618-3.728928 2.25332-7.525394 3.693112-11.160177 1.316995-3.321652 1.045819-5.588275-2.367931-7.531534-3.316535-1.886977-6.242168-4.454452-9.337669-6.720052 0.060375-0.487094 0.113587-0.974188 0.172939-1.462305 2.201132 0 4.408403 0 6.613628 0 9.810437 0 9.794064-0.00614 12.859889-9.312086 0.663102-2.020006 1.455141-4.002151 2.25025-5.974062 0.12075-0.294712 0.593518-0.448208 1.189082-0.86981 1.418302 4.176113 3.067872 8.106632 4.03899 12.195763 0.791016 3.347235 2.537799 4.241604 5.677303 4.006244 2.923586-0.217964 5.875824-0.082888 8.813736-0.026606 1.107217 0.020466 2.210341 0.251733 3.579525 1.335415-3.493567 2.568499-6.932899 5.218862-10.503215 7.67275C496.343927 264.204357 495.775992 265.582751 496.789065 268.112364zM463.725018 166.264745c2.342348 0 4.682649 0 7.023974 0 9.638521 0.002047 9.618055-0.005117 12.599969-9.179057 0.728594-2.236947 1.638313-4.412496 3.526313-6.708795 1.401929 4.169973 2.958378 8.29492 4.15053 12.521175 0.704035 2.491751 1.904373 3.514033 4.517897 3.408633 4.249791-0.166799 8.510838-0.042979 12.765745-0.042979 0.192382 0.346901 0.38374 0.694825 0.574075 1.043772-1.375324 1.159406-2.694365 2.4017-4.145413 3.462868-9.182127 6.721075-9.182127 6.702656-5.450129 17.333784 0.607844 1.732457 1.081635 3.51301 1.612731 5.269004-0.277316 0.25992-0.559748 0.51677-0.841158 0.775666-3.648087-2.650363-7.353478-5.220908-10.916631-7.980765-1.998517-1.542122-3.610224-1.63729-5.66093-0.014326-3.416819 2.708692-7.04444 5.151323-10.583033 7.705496-0.376577-0.209778-0.75213-0.420579-1.128707-0.63138 0.791016-2.517333 1.562589-5.04183 2.372024-7.554046 2.730181-8.449439 2.732228-8.444323-4.460592-13.574157-2.040473-1.458211-4.070712-2.943029-6.101975-4.41659C463.628828 167.212326 463.676923 166.738535 463.725018 166.264745zM412.427702 122.636085c4.336772 0 8.68173-0.128937 13.012362 0.045025 2.545986 0.105401 3.924379-0.716314 4.595668-3.251044 0.890276-3.345188 2.079358-6.612605 3.219321-9.889231 0.35918-1.028423 0.974188-1.969864 1.952468-3.89982 1.762133 5.341658 3.318582 9.56382 4.523013 13.886265 0.673335 2.407839 1.964748 3.191692 4.317329 3.136433 4.338818-0.104377 8.67866-0.028653 13.021571-0.028653 0.167822 0.432859 0.332575 0.867764 0.50449 1.300622-3.242857 2.365884-6.391571 4.871961-9.754155 7.04751-2.632967 1.702782-3.605108 3.357468-2.230808 6.570649 1.650593 3.850701 2.594081 8.003278 3.849678 12.025894-0.286526 0.227174-0.568958 0.452301-0.853437 0.679475-3.418866-2.434445-6.974855-4.705162-10.218736-7.355525-2.457981-2.007727-4.310166-2.288113-6.879688-0.076748-3.148713 2.715855-6.721075 4.936429-10.113335 7.371898-0.319272-0.252757-0.64059-0.50449-0.960885-0.756223 1.068332-3.494591 1.796926-7.150864 3.305279-10.447956 1.873674-4.089132 0.98749-6.606465-2.845815-8.807596-3.081175-1.77032-5.814426-4.155646-8.702196-6.264681C412.257833 123.491569 412.343791 123.06178 412.427702 122.636085zM309.682643 210.010061c3.447519 0 6.936993-0.324388 10.336416 0.076748 4.700045 0.560772 7.18054-1.070378 8.125051-5.792936 0.692778-3.447519 2.119267-6.750751 3.218298-10.117428 0.388856-0.047072 0.776689-0.095167 1.163499-0.140193 1.161453 3.294023 2.405793 6.563486 3.474125 9.890254 2.37714 7.399527 1.571798 5.889127 8.099469 6.076392 3.207042 0.092098 6.414083 0.085958 9.621125 0.181125 0.322341 0.008186 0.633427 0.390903 1.39886 0.901533-3.588735 2.645247-6.838755 5.371334-10.410094 7.572466-2.77623 1.714038-2.979868 3.669576-1.982144 6.361895 1.067308 2.877537 1.99954 5.804193 2.927679 8.730848 0.338714 1.073448 0.490164 2.207271-0.095167 3.916193-3.517103-2.536776-7.14984-4.928243-10.512425-7.659447-2.149966-1.743714-3.749394-1.812275-5.925966-0.055259-3.451612 2.780323-7.154957 5.251607-10.753925 7.855922-0.292666-0.260943-0.584308-0.520863-0.877997-0.782829 1.363044-4.278443 2.611477-8.599865 4.140297-12.818957 0.825808-2.275833 0.452301-3.676739-1.602498-5.053086-3.618411-2.429329-7.049556-5.14109-10.558473-7.733125C309.540404 210.95048 309.613058 210.480782 309.682643 210.010061zM291.011398 355.039155c1.578961 4.303003 2.792603 8.734942 4.157693 13.111622-0.324388 0.245593-0.64366 0.490164-0.966001 0.731664-3.082198-2.215458-6.434549-4.14439-9.175987-6.724145-3.244904-3.051499-5.782703-2.545986-8.873088 0.098237-2.90926 2.492774-6.180769 4.565992-10.16757 6.29231 1.366114-4.357238 2.496867-8.80862 4.183276-13.038968 1.030469-2.578732 0.346901-3.908006-1.709945-5.316076-3.502777-2.39863-6.876618-4.985548-10.30674-7.491625 0.062422-0.488117 0.124843-0.974188 0.187265-1.461281 2.479471 0 4.965082 0 7.444553 0 8.963139 0 8.951883-0.00614 11.654434-8.369621 0.814552-2.523473 1.711991-5.01727 3.617387-7.773034 0.960885 2.746554 1.9934 5.471618 2.87242 8.241708 2.488681 7.891737 2.462075 7.900947 10.788717 7.900947 2.765997 0 5.531993 0 8.30413 0 0.1361 0.416486 0.272199 0.835018 0.407276 1.255597-3.615341 2.64934-7.17133 5.387707-10.869558 7.915273C290.738176 351.659175 290.205033 352.837001 291.011398 355.039155zM258.311649 253.747191c2.750647 0 5.502317 0.028653 8.255011-0.00307 10.227945-0.118704 7.481392 1.239224 10.737552-7.9296 0.929162-2.623757 1.788739-5.273097 3.701299-8.202822 0.903579 2.453888 1.911536 4.876054 2.703575 7.364735 2.784416 8.761548 2.755764 8.769734 12.07092 8.769734 2.422166 0 4.844332 0 7.265474 0 0.093121 0.448208 0.186242 0.892323 0.277316 1.338485-3.179412 2.340301-6.185886 4.981455-9.589402 6.932899-3.276626 1.882883-3.504824 4.113691-2.294252 7.219425 1.113357 2.854001 2.028193 5.786797 2.957355 8.710382 0.294712 0.917906 0.36225 1.906419-0.26913 3.451612-3.620457-2.628874-7.324826-5.148253-10.82658-7.924483-1.916653-1.518586-3.387144-1.477654-5.27412-0.021489-3.663436 2.819209-7.471159 5.453199-12.021801 7.616468 1.324158-4.252861 2.336208-8.641821 4.069689-12.721743 1.26583-2.966565 0.225127-4.38589-1.994424-5.912663-3.377934-2.324952-6.650467-4.801353-9.967002-7.212262C258.177596 254.732635 258.246157 254.240425 258.311649 253.747191zM155.383418 341.239871c3.940752 0 7.922437-0.366344 11.80179 0.101307 4.007267 0.484024 5.463432-1.407046 6.328126-4.76963 0.733711-2.834558 1.699712-5.612834 2.656503-8.382924 0.363274-1.056052 0.98749-2.025123 1.940189-3.922333 1.701758 5.086855 3.298116 9.148357 4.38282 13.34289 0.7552 2.931772 2.25639 3.815909 5.120624 3.679809 4.155646-0.195451 8.328689-0.048095 12.494569-0.048095 0.105401 0.448208 0.208754 0.896416 0.316202 1.343601-3.486404 2.566452-6.909363 5.221932-10.480702 7.659447-2.105964 1.438769-2.607384 2.819209-1.603521 5.337565 1.644453 4.142343 2.750647 8.498558 4.086062 12.764722-0.276293 0.212848-0.554632 0.421602-0.830925 0.632403-3.63683-2.605338-7.382131-5.073552-10.872628-7.865131-2.182712-1.744737-3.751441-1.64957-5.892197 0.098237-3.361561 2.734274-7.013741 5.111414-10.54517 7.637957-0.318248-0.214894-0.638543-0.433882-0.954745-0.650823 1.020236-3.344165 1.957585-6.715959 3.074012-10.030447 1.968841-5.852288 2.015913-5.843078-3.001357-9.53926-2.765997-2.037403-5.54325-4.055362-8.318456-6.083555C155.183873 342.109682 155.285181 341.6758 155.383418 341.239871zM188.512956 443.611423c1.702782 3.843538 2.635013 8.022721 3.895727 12.057617-0.258896 0.254803-0.521886 0.5137-0.783853 0.768503-3.246951-2.320858-6.65456-4.450359-9.69071-7.017834-2.920516-2.471284-5.250584-2.606361-8.203846 0.007163-2.920516 2.582825-6.296403 4.652973-9.475815 6.943133-0.326435-0.248663-0.655939-0.50142-0.983397-0.7552 1.152243-3.603061 2.072195-7.303336 3.521197-10.782577 1.497097-3.594875 1.2689-6.061043-2.460028-8.163937-3.300162-1.857301-6.187933-4.440126-9.259898-6.702656 0.066515-0.408299 0.134053-0.823761 0.200568-1.231037 4.022617 0 8.066723-0.270153 12.05864 0.080841 3.647063 0.313132 5.340635-1.115404 6.124488-4.519943 0.656963-2.844791 1.682315-5.614881 2.645247-8.382924 0.399089-1.154289 1.049912-2.226714 2.049682-4.284583 1.826602 5.617951 3.264347 9.772574 4.508687 13.984503 0.670266 2.275833 1.870604 3.251044 4.306072 3.163039 4.336772-0.154519 8.677637-0.042979 13.017478-0.042979 0.165776 0.436952 0.332575 0.87288 0.499373 1.306762-3.232624 2.367931-6.387477 4.852518-9.725502 7.058766C188.219267 438.778348 187.076234 440.353217 188.512956 443.611423zM239.777527 486.889089c1.632173 4.142343 2.762927 8.476045 4.105504 12.728906-0.294712 0.195451-0.590448 0.388856-0.883113 0.581238-3.64604-2.620687-7.363711-5.142114-10.900258-7.90504-2.016937-1.571798-3.607154-1.660826-5.656837-0.045025-3.533476 2.774183-7.257288 5.305843-10.900258 7.940856-0.317225-0.194428-0.629333-0.38681-0.943488-0.579191 1.14508-3.586688 2.016937-7.294127 3.51301-10.723226 1.719154-3.943822 1.222851-6.561439-2.742461-8.769734-3.184529-1.775436-5.956665-4.285606-8.915044-6.474458 0.085958-0.423649 0.168846-0.849344 0.25378-1.27504 4.041036 0 8.099469-0.212848 12.123109 0.065492 3.362584 0.229221 5.111414-0.811482 5.945409-4.228301 0.967024-3.972475 2.548032-7.7935 3.861958-11.68104 0.355087-0.045025 0.710175-0.094144 1.066285-0.13917 1.353834 3.908006 2.970658 7.756661 3.981684 11.752672 0.844228 3.348258 2.465145 4.554736 5.89629 4.297886 4.030803-0.296759 8.102538-0.068562 12.156878-0.068562 0.103354 0.431835 0.209778 0.857531 0.313132 1.287319-3.491521 2.557242-6.888897 5.248537-10.499122 7.619538C239.246431 482.783585 238.739894 484.249983 239.777527 486.889089zM242.800373 392.859529c-3.731998 2.077312-4.062526 4.52199-2.573615 8.157797 1.480724 3.605108 2.459005 7.417947 3.657296 11.142781-0.316202 0.198521-0.63445 0.397043-0.950651 0.593518-3.6399-2.639107-7.357572-5.174859-10.881838-7.954159-2.032286-1.604544-3.614317-1.579985-5.640464 0.011256-3.52836 2.774183-7.240915 5.313006-10.876722 7.952112-0.317225-0.202615-0.63445-0.403183-0.956791-0.602727 1.245364-3.857864 2.254344-7.80885 3.789303-11.538801 1.404999-3.402493 0.951675-5.580089-2.37407-7.529487-3.37998-1.976004-6.412037-4.558829-9.589402-6.877641 0.102331-0.438998 0.203638-0.874927 0.306992-1.312902 4.190439 0 8.387018-0.182149 12.56313 0.061398 3.062755 0.177032 4.598738-0.850367 5.393847-3.879354 1.069355-4.079922 2.625804-8.037047 3.975545-12.045337 0.367367-0.040932 0.733711-0.081864 1.103124-0.119727 1.375324 4.052293 2.969635 8.051373 4.063549 12.181437 0.806365 3.040243 2.358721 4.03285 5.406127 3.861958 4.175089-0.239454 8.370645-0.061398 12.55699-0.061398 0.091074 0.426719 0.187265 0.851391 0.278339 1.279133C248.984213 388.4368 246.099513 391.022695 242.800373 392.859529zM242.626411 305.537741c-3.433192 2.01796-3.988848 4.276397-2.473331 7.831362 1.535983 3.603061 2.508123 7.450692 3.724835 11.193947-0.297782 0.2415-0.603751 0.487094-0.899486 0.729617-3.594875-2.587941-7.29208-5.039783-10.737552-7.809873-2.14485-1.726318-3.743254-1.829671-5.930059-0.064468-3.462868 2.795673-7.184633 5.269004-10.79588 7.877411-0.293689-0.217964-0.588401-0.437975-0.88516-0.660032 1.375324-4.378727 2.549056-8.839319 4.199649-13.112646 0.925069-2.40477 0.317225-3.605108-1.641383-4.935406-3.685949-2.508123-7.205099-5.252631-10.79588-7.894807 0.101307-0.417509 0.202615-0.833995 0.298805-1.248434 4.194532 0 8.398274-0.173962 12.580526 0.058328 3.047406 0.168846 4.601808-0.845251 5.393847-3.870144 1.069355-4.088108 2.619664-8.048303 3.959172-12.06171 0.35918-0.050142 0.719384-0.098237 1.079588-0.146333 1.348718 3.904936 2.955308 7.744381 3.967358 11.735275 0.841158 3.304256 2.373047 4.623297 5.850242 4.357238 4.046153-0.308015 8.128121-0.071631 12.199856-0.071631 0.12075 0.411369 0.2415 0.826831 0.363274 1.238201C248.94635 300.992215 245.966483 303.569924 242.626411 305.537741zM291.44528 444.168102c1.170662 2.974751 2.142803 6.02932 3.116991 9.076726 0.258896 0.801249 0.202615 1.705851 0.402159 3.614317-3.538593-2.520403-6.323009-4.479011-9.082866-6.470365-5.244444-3.781116-5.228071-3.77907-10.652618 0.121773-2.780323 2.00261-5.592368 3.954055-9.209756 5.374404 1.334391-4.260024 2.406816-8.628518 4.093225-12.744255 1.121544-2.740414 0.366344-4.139274-1.819438-5.619998-3.488451-2.363837-6.829546-4.935406-10.233062-7.417947 0.160659-0.457418 0.321318-0.913812 0.478907-1.369184 3.956102 0 7.92039-0.173962 11.858072 0.053212 3.15997 0.185218 4.880147-0.719384 5.675256-4.037966 0.982374-4.090155 2.616594-8.020674 4.993734-12.170181 1.245364 3.543709 2.864234 7.008624 3.6399 10.654664 0.949628 4.51278 3.173273 6.135744 7.737218 5.584182 3.494591-0.423649 7.077186-0.083911 10.618848-0.083911 0.147356 0.39295 0.291642 0.784876 0.437975 1.180895-3.237741 2.372024-6.303566 5.043876-9.759271 7.0383C290.472116 438.839747 290.225499 441.056228 291.44528 444.168102zM342.546122 486.72843c1.417279 4.101411 2.670829 8.257058 3.996011 12.391215-0.387833 0.273223-0.777713 0.545422-1.161453 0.819668-3.523243-2.552126-7.135514-4.997827-10.541077-7.703449-2.055822-1.629103-3.663436-1.484817-5.649674 0.051165-3.539616 2.737344-7.223518 5.288446-10.849092 7.92039-0.290619-0.225127-0.579191-0.448208-0.86981-0.677429 1.343601-4.260024 2.52859-8.579399 4.097318-12.753465 0.925069-2.468215 0.450255-3.927449-1.700735-5.369288-3.602038-2.415003-7.02602-5.090948-10.522658-7.65433 0.116657-0.461511 0.231267-0.924045 0.343831-1.385557 4.046153 0 8.100492-0.163729 12.136412 0.051165 3.128247 0.170892 4.909823-0.613984 5.679349-4.009314 0.907673-3.986801 2.526543-7.809873 3.841491-11.703553 0.405229-0.083911 0.807389-0.168846 1.215688-0.25378 0.828878 2.360767 1.704828 4.704139 2.480494 7.083326 2.88163 8.827039 2.869351 8.832156 12.092409 8.832156 2.443655 0 4.882194 0 7.323802 0 0.104377 0.438998 0.205685 0.873903 0.314155 1.311879-3.484358 2.581802-6.867408 5.314029-10.485819 7.68503C342.052888 482.824517 341.74078 484.406548 342.546122 486.72843zM344.837304 393.46021c-2.904143 1.778506-3.107781 3.818979-2.058892 6.684236 1.390673 3.809769 2.535753 7.708566 3.78521 11.573593-0.346901 0.272199-0.692778 0.540306-1.037632 0.812505-2.847861-2.036379-5.924943-3.822049-8.482185-6.175653-3.463891-3.186576-6.348592-3.37998-9.889231-0.073678-2.64013 2.461051-5.874801 4.288676-8.846482 6.398734-0.268106-0.227174-0.534166-0.452301-0.800225-0.679475 1.24434-4.02364 2.180666-8.182356 3.834328-12.033058 1.378393-3.203972 0.413416-4.880147-2.192945-6.583952-3.319605-2.168386-6.453992-4.626367-9.665127-6.960529 0.084934-0.506537 0.167822-1.01512 0.251733-1.523703 4.199649 0 8.403391-0.125867 12.595876 0.042979 2.845815 0.116657 4.348028-0.74599 5.079692-3.725858 1.00591-4.094248 2.616594-8.037047 3.968381-12.044314 0.36532-0.063445 0.729617-0.12689 1.094938-0.192382 1.176802 3.27458 2.453888 6.516414 3.50994 9.829879 1.935072 6.068206 1.87879 6.064113 8.049327 6.097882 3.200902 0.016373 6.40385 0.107447 9.602705 0.225127 0.297782 0.01228 0.578168 0.446162 1.270946 1.01205C351.459119 388.688533 348.303242 391.331733 344.837304 393.46021zM344.170109 306.556954c-2.098801 1.38351-2.418073 2.836605-1.671059 5.034666 1.437745 4.231371 2.732228 8.508791 4.087085 12.770861-0.323365 0.264013-0.650823 0.531096-0.977257 0.796132-3.487428-2.511193-7.111978-4.860704-10.422374-7.591909-2.293229-1.890047-3.990894-1.833765-6.263657-0.00614-3.38919 2.724041-7.045463 5.120624-10.584056 7.653307-0.292666-0.210801-0.582261-0.421602-0.876973-0.63138 1.350764-4.259 2.550079-8.579399 4.116761-12.760628 0.926092-2.475378 0.405229-3.910053-1.749854-5.357008-3.599991-2.416026-7.004531-5.129834-10.487865-7.718799 0.104377-0.434905 0.205685-0.867764 0.312108-1.300622 4.065596 0 8.132214-0.149403 12.183484 0.050142 3.131317 0.155543 4.925173-0.650823 5.693676-4.049223 0.899486-3.989871 2.512217-7.821129 3.817955-11.718903 0.378623-0.078795 0.76134-0.155543 1.144056-0.231267 0.8913 2.496867 1.832741 4.977361 2.663666 7.494695 2.792603 8.449439 2.778276 8.447393 11.619642 8.462742 2.273786 0.001023 4.547573 0.052189 6.816243 0.14224 0.345877 0.01228 0.674359 0.349971 1.585101 0.858554C351.346555 301.308417 347.877547 304.110229 344.170109 306.556954zM394.106428 443.476347c1.430582 3.955078 2.588965 8.004301 3.859911 12.016685-0.313132 0.249687-0.62217 0.499373-0.935302 0.748037-2.874467-2.023076-5.738701-4.054339-8.620331-6.065136-6.019087-4.201695-3.802606-4.284583-10.001795 0.090051-2.794649 1.972934-5.584182 3.954055-8.378831 5.931083-0.335644-0.207731-0.673335-0.414439-1.010003-0.624217 1.173732-3.837398 2.055822-7.798617 3.613294-11.469216 1.461281-3.443425 0.520863-5.378497-2.439562-7.241938-3.241834-2.042519-6.221702-4.502547-9.314133-6.78145 0.051165-0.448208 0.103354-0.89744 0.155543-1.345648 3.465938 0 6.935969 0 10.402931 0 6.233981 0 6.197142-0.016373 8.094352-6.096858 1.006933-3.226484 2.175549-6.40385 3.26844-9.600659 0.415462-0.021489 0.828878-0.045025 1.242294-0.065492 1.111311 3.143597 2.231831 6.285147 3.323699 9.435906 2.405793 6.918573 0.473791 6.287193 8.69094 6.326079 3.238764 0.014326 6.480598 0.002047 9.718339 0.002047 0.106424 0.416486 0.211824 0.830925 0.318248 1.24741-3.357468 2.501984-6.601348 5.190209-10.119475 7.444553C393.417743 439.066921 393.15373 440.84338 394.106428 443.476347zM395.968845 349.96151c-2.554172 1.635243-2.819209 3.423983-1.861394 6.055926 1.434675 3.946892 2.583848 7.996115 3.856841 12.001335-0.344854 0.281409-0.691755 0.562818-1.035586 0.841158-2.954285-2.146896-6.145977-4.041036-8.804527-6.506181-3.247974-3.007497-5.915733-3.028986-9.191336-0.083911-2.721994 2.449795-5.897314 4.39817-8.872065 6.569626-0.349971-0.252757-0.700965-0.502443-1.047866-0.7552 1.242294-3.982708 2.307555-8.036024 3.789303-11.924587 1.098008-2.876514 0.563842-4.672416-2.037403-6.356778-3.431146-2.222621-6.623861-4.811586-9.914814-7.243985 0.065492-0.438998 0.137123-0.877997 0.207731-1.316995 3.351328 0 6.705726 0.026606 10.053983-0.007163 7.700379-0.073678 6.02932 0.830925 8.429996-6.133697 1.102101-3.184529 2.199085-6.374174 3.296069-9.559727 0.420579-0.01535 0.837064-0.030699 1.261737-0.046049 1.153266 3.422959 2.591011 6.780427 3.37998 10.285251 0.947582 4.195555 2.908236 6.087649 7.435343 5.548366 3.589758-0.431835 7.27366-0.086981 10.915607-0.086981 0.104377 0.428765 0.206708 0.859577 0.306992 1.288343C402.760528 345.027128 399.498228 347.701027 395.968845 349.96151zM396.03536 262.445294c-2.471284 1.605567-2.963495 3.330862-1.967818 6.030343 1.455141 3.945869 2.595105 8.010441 3.867074 12.024871-0.398066 0.25378-0.795109 0.508583-1.189082 0.763386-2.448772-1.780553-4.864798-3.614317-7.358595-5.335519-7.388271-5.095042-4.430916-5.108345-11.993149 0.121773-2.476401 1.713015-4.883217 3.523243-7.317663 5.290493-0.350994-0.24457-0.701988-0.490164-1.048889-0.732687 1.242294-3.987824 2.302439-8.049327 3.791349-11.94096 1.106194-2.898003 0.48607-4.686742-2.082428-6.349615-3.432169-2.226714-6.644327-4.782933-9.953699-7.197936 0.079818-0.454348 0.160659-0.913812 0.243547-1.372254 3.218298 0 6.440689 0.034792 9.658987-0.00614 8.227382-0.102331 6.452969 0.991584 8.956999-6.484691 0.974188-2.90312 2.00568-5.782703 3.051499-8.66331 0.058328-0.170892 0.445138-0.224104 1.375324-0.657986 1.169639 3.475148 2.594081 6.827499 3.396353 10.323113 0.951675 4.152577 2.849908 6.133697 7.408737 5.575995 3.593851-0.437975 7.283894-0.088004 10.929934-0.088004 0.11768 0.431835 0.236384 0.86367 0.358157 1.296529C402.798391 257.530354 399.537114 260.172531 396.03536 262.445294zM395.693576 175.265746c-2.210341 1.467421-2.563382 3.044336-1.734504 5.405103 1.432629 4.086062 2.663666 8.248871 3.976568 12.378935-0.340761 0.274246-0.683569 0.547469-1.027399 0.818645-3.279696-2.358721-6.704702-4.547573-9.79304-7.135514-2.618641-2.194992-4.672416-2.180666-7.293103 0-3.096525 2.579755-6.532787 4.747117-9.821693 7.093559-0.333598-0.25992-0.663102-0.51984-0.995677-0.780783 1.312902-4.131087 2.543939-8.292873 3.977591-12.382005 0.825808-2.359744 0.470721-3.937682-1.740644-5.402033-3.603061-2.388397-6.995321-5.103228-10.472516-7.67889 0.103354-0.438998 0.208754-0.880043 0.311085-1.318018 3.916193 0 7.862062-0.319272 11.733229 0.090051 3.898797 0.410346 5.513574-1.257643 6.41613-4.734838 0.974188-3.75451 2.346441-7.408737 3.543709-11.104919 0.456395 0.005117 0.913812 0.010233 1.369184 0.014326 1.170662 3.569292 2.558265 7.086395 3.450589 10.723226 0.936325 3.834328 2.772136 5.563716 6.948249 5.099135 3.730974-0.412392 7.54586-0.086981 11.322883-0.086981 0.102331 0.437975 0.202615 0.87595 0.304945 1.312902C402.68992 170.158425 399.298683 172.873256 395.693576 175.265746zM445.610452 487.469304c1.653663 3.850701 2.586918 8.008394 3.054569 12.662391-2.986007-2.108011-6.236028-3.931542-8.896624-6.391571-3.554966-3.28686-6.447852-3.064802-9.898441 0.103354-2.505054 2.299369-5.528923 4.03285-8.325619 6.014994-0.382717-0.196475-0.765433-0.39295-1.147126-0.584308 0.820692-2.641153 1.595334-5.296633 2.474354-7.916297 2.669806-7.91118 2.683109-7.904017-4.056386-12.780071-2.226714-1.613754-4.431939-3.25923-6.646374-4.888334 0.091074-0.441045 0.178055-0.881067 0.26606-1.320065 3.370771 0 6.743588 0 10.115382 0 6.505158 0 6.491855-0.005117 8.397251-6.129604 0.754177-2.419096 1.517563-4.839215 2.39556-7.220449 0.329505-0.896416 0.982374-1.670036 1.937119-3.233648 1.645476 4.89345 3.260254 8.847505 4.261047 12.947893 0.733711 3.00852 2.286066 3.792373 5.107321 3.680832 4.183276-0.170892 8.378831-0.045025 12.567223-0.045025 0.119727 0.444115 0.2415 0.887206 0.361227 1.333368-3.267417 2.39249-6.465249 4.903683-9.838066 7.141654C445.135638 482.572784 444.247408 484.289891 445.610452 487.469304zM448.207603 393.07954c-2.806929 1.818415-4.158716 3.557012-2.51938 7.150864 1.686409 3.695159 2.517333 7.779174 2.977821 12.437264-2.405793-1.684362-4.830005-3.340071-7.208169-5.058203-6.594185-4.755304-6.573719-4.749164-13.313214 0.154519-2.213411 1.608637-4.501524 3.107781-6.757914 4.656043-0.322341-0.206708-0.641613-0.415462-0.959861-0.620124 1.108241-3.593851 1.947352-7.29822 3.394307-10.749832 1.547239-3.677762 1.057075-6.094812-2.553149-8.194636-3.266393-1.902326-6.161327-4.437056-9.218966-6.692423 0.085958-0.419556 0.176009-0.842181 0.267083-1.263783 4.041036 0 8.114818-0.291642 12.124132 0.084934 3.708462 0.345877 5.256724-1.266853 6.144954-4.545526 1.056052-3.865028 2.434445-7.642051 3.672646-11.456936 0.426719 0.063445 0.852414 0.125867 1.278109 0.190335 1.307785 3.856841 2.946099 7.636934 3.825119 11.588943 0.798179 3.561106 2.698458 4.370541 5.957689 4.190439 3.929496-0.217964 7.873318-0.051165 11.809977-0.051165 0.170892 0.458441 0.341784 0.915859 0.511653 1.376347C454.50503 388.55755 451.458647 390.973576 448.207603 393.07954zM447.397145 306.20596c-2.430352 1.594311-3.007497 3.215228-1.893116 6.009877 1.574868 3.938706 2.62785 8.082072 3.198855 12.915148-2.716878-1.879813-5.432733-3.746324-8.140401-5.635347-7.109931-4.962012-4.51892-4.697999-11.377118 0.021489-2.605338 1.792832-5.140067 3.686972-7.707542 5.536087-0.370437-0.193405-0.740874-0.390903-1.110287-0.586354 0.818645-2.6432 1.584078-5.307889 2.472308-7.928576 2.706645-7.967462 2.726088-7.959276-3.978614-12.825097-2.240017-1.62808-4.485151-3.25616-6.726192-4.883217 0.078795-0.460488 0.159636-0.923022 0.234337-1.38351 4.074805 0 8.172123-0.25685 12.221346 0.077771 3.5038 0.289596 5.048993-1.218758 5.933129-4.328585 1.104147-3.897773 2.474354-7.720845 3.729951-11.57564 0.415462 0.01228 0.830925 0.023536 1.246387 0.033769 1.288343 3.805676 2.915399 7.538697 3.771907 11.43954 0.822738 3.722788 2.806929 4.625344 6.254447 4.411473 3.906983-0.24457 7.844665-0.058328 11.764951-0.058328 0.12075 0.459464 0.236384 0.919952 0.350994 1.37737C454.241017 301.299207 450.916295 303.901475 447.397145 306.20596zM447.459566 218.712257c-2.382257 1.569752-3.130294 3.123131-1.986237 5.974062 1.613754 4.02364 2.682086 8.267291 3.983731 12.415774-0.279363 0.216941-0.562818 0.435928-0.843204 0.653893-3.535523-2.524496-7.163143-4.930289-10.570753-7.613398-2.216481-1.746784-3.903913-2.045589-6.249331-0.075725-3.288906 2.761903-6.943133 5.092995-10.440793 7.610328-0.318248-0.25685-0.63445-0.511653-0.952698-0.763386 1.079588-3.502777 1.806135-7.169283 3.320629-10.467399 1.889023-4.104481 0.977257-6.618744-2.861164-8.81169-3.082198-1.76725-5.820566-4.140297-8.710382-6.242168 0.046049-0.460488 0.089028-0.919952 0.138146-1.38044 2.620687 0 5.241374 0 7.865131 0 8.854669 0 8.845459-0.004093 11.622712-8.461719 0.831948-2.532683 1.730411-5.042853 2.599198-7.559163 0.405229 0.072655 0.806365 0.145309 1.207501 0.217964 1.37737 4.149507 2.949168 8.250918 4.060479 12.472056 0.689708 2.619664 2.066055 3.420913 4.564969 3.359514 4.347005-0.104377 8.69094-0.028653 13.036921-0.028653 0.137123 0.446162 0.277316 0.89437 0.417509 1.340531C454.266599 213.818807 450.95825 216.407772 447.459566 218.712257zM496.905722 443.369923c1.675152 3.986801 2.683109 8.258081 3.184529 13.07376-3.618411-2.579755-7.339152-5.02648-10.8143-7.783267-2.12336-1.688455-3.675716-1.868557-5.880941-0.059352-3.360538 2.755764-7.04137 5.122671-10.585079 7.656377-0.338714-0.190335-0.679475-0.38374-1.017166-0.574075 1.001817-3.302209 1.925862-6.631024 3.016707-9.902534 2.026146-6.061043 2.069125-6.05081-3.134387-9.856485-2.725064-1.992377-5.472642-3.960195-8.208962-5.938246 0.11461-0.418532 0.228197-0.837064 0.340761-1.254573 4.181229 0 8.382924-0.236384 12.545734 0.073678 3.170203 0.240477 4.552689-1.061169 5.364171-3.895727 1.165546-4.065596 2.588965-8.05956 3.901867-12.08627 0.413416-0.055259 0.830925-0.109494 1.243317-0.165776 0.957815 2.838651 1.87572 5.694699 2.87856 8.518001 3.122107 8.762571 0.802272 7.442506 10.253528 7.54893 2.845815 0.031722 5.692652 0.00614 8.534374 0.00614 0.134053 0.448208 0.264013 0.896416 0.398066 1.345648-3.377934 2.460028-6.683213 5.018294-10.151197 7.340175C496.430908 438.991196 495.700267 440.502619 496.905722 443.369923zM499.188718 349.651448c-2.559289 1.690502-3.62762 3.291976-2.194992 6.528694 1.690502 3.837398 2.614547 8.013511 3.099594 12.735046-2.952238-2.075265-6.110161-3.920286-8.812713-6.285147-3.405563-2.983961-6.251378-3.592828-9.816576-0.130983-2.520403 2.451842-5.727445 4.195555-8.629541 6.257517-0.336668-0.179079-0.672312-0.357134-1.007957-0.533143 0.986467-3.300162 1.89107-6.624884 2.975774-9.889231 2.013867-6.054903 2.068102-6.048763-3.106758-9.847276-2.734274-2.00568-5.489014-3.975545-8.236592-5.964852 0.106424-0.426719 0.211824-0.854461 0.318248-1.283226 3.901867 0 7.837502-0.324388 11.694343 0.090051 4.063549 0.433882 5.687536-1.300622 6.594185-4.965082 0.940418-3.800559 2.444679-7.460925 3.699252-11.181667 0.367367 0.007163 0.732687 0.014326 1.100054 0.021489 1.373277 4.070712 2.998287 8.077979 4.040013 12.230556 0.783853 3.111874 2.37714 4.0175 5.393847 3.858888 4.044106-0.216941 8.114818-0.054235 12.170181-0.054235 0.161682 0.445138 0.321318 0.893346 0.481977 1.339508C505.708202 344.95038 502.541069 347.44213 499.188718 349.651448zM599.476819 355.036086c1.576915 4.299933 2.790556 8.735965 4.157693 13.112646-0.325411 0.24457-0.645706 0.490164-0.967024 0.733711-3.082198-2.215458-6.433526-4.14439-9.175987-6.721075-3.243881-3.051499-5.78168-2.550079-8.870018 0.095167-2.910283 2.492774-6.179746 4.565992-10.172687 6.29231 1.369184-4.357238 2.501984-8.80862 4.189416-13.038968 1.027399-2.578732 0.343831-3.910053-1.713015-5.316076-3.5038-2.400676-6.879688-4.985548-10.30674-7.494695 0.062422-0.485047 0.12382-0.971118 0.186242-1.458211 2.480494 0 4.965082 0 7.448646 0 8.960069 0 8.947789-0.00614 11.652388-8.376785 0.813528-2.520403 1.713015-5.015224 3.611248-7.773034 0.960885 2.7486 1.998517 5.471618 2.870374 8.244778 2.495844 7.895831 2.470261 7.90504 10.790764 7.90504 2.77009 0 5.536087 0 8.308223 0 0.1361 0.416486 0.272199 0.835018 0.409322 1.252527-3.613294 2.64934-7.17133 5.38873-10.868535 7.916297C599.207689 351.656105 598.671477 352.831884 599.476819 355.036086zM600.076476 269.693372c1.358951 3.545756 2.39863 7.215332 3.579525 10.829649-0.320295 0.287549-0.641613 0.574075-0.957815 0.859577-3.252067-2.312672-6.757914-4.355191-9.691733-7.019881-2.933819-2.656503-5.102205-2.226714-7.880481 0.090051-3.113921 2.598174-6.567579 4.783956-9.870812 7.14984-0.270153-0.197498-0.539282-0.397043-0.807389-0.594541 1.38658-4.384867 2.576685-8.849552 4.242627-13.125949 0.939395-2.400676 0.327458-3.672646-1.583055-5.001921-3.575432-2.491751-7.05365-5.130857-10.570753-7.710612 0.067538-0.472767 0.1361-0.947582 0.203638-1.421372 3.461845 0 6.959505-0.342808 10.367115 0.082888 4.724605 0.591471 7.123234-1.108241 8.082072-5.779633 0.713244-3.482311 2.14485-6.821359 4.29277-10.460236 0.971118 2.749624 2.018983 5.472642 2.898003 8.248871 2.49789 7.899924 2.470261 7.909134 10.744715 7.909134 2.736321 0 5.478781 0 8.216125 0 0.153496 0.423649 0.308015 0.846274 0.457418 1.269923-3.095501 2.304486-5.999644 4.951779-9.343809 6.824429C598.819856 263.883039 598.78711 266.334881 600.076476 269.693372zM515.181971 122.636085c2.75781 0 5.523807 0.048095 8.284687-0.010233 10.037611-0.208754 7.473205 1.76111 10.980076-8.18645 0.916882-2.604314 1.811252-5.220908 3.727904-7.942903 1.348718 3.922333 2.992147 7.773034 3.959172 11.788487 0.865717 3.592828 2.717901 4.670369 6.225795 4.414543 3.906983-0.284479 7.848759-0.064468 11.776208-0.064468 0.113587 0.397043 0.228197 0.795109 0.341784 1.194198-3.477194 2.552126-6.859221 5.241374-10.459213 7.608282-2.300392 1.515516-2.797719 2.984984-1.77032 5.607718 1.604544 4.128017 2.724041 8.448416 4.049223 12.68695-0.299829 0.190335-0.603751 0.3776-0.901533 0.569982-3.765767-2.694365-7.605212-5.288446-11.252275-8.127098-1.809205-1.406023-3.101641-1.376347-4.894474 0.01228-3.651157 2.832512-7.488555 5.426593-11.250228 8.120958-0.297782-0.193405-0.597611-0.387833-0.893346-0.581238 1.329275-4.242627 2.446725-8.568143 4.065596-12.69923 1.039679-2.651386 0.471744-4.103458-1.805112-5.597485-3.543709-2.331092-6.892991-4.963035-10.32516-7.463995C515.089873 123.521245 515.131829 123.078153 515.181971 122.636085zM515.131829 210.013131c4.170996 0 8.364505-0.25685 12.505825 0.079818 3.37998 0.275269 4.730745-1.101077 5.548366-4.1536 1.088798-4.034896 2.623757-7.951089 3.967358-11.917424 0.367367 0 0.733711-0.004093 1.099031-0.004093 1.302669 3.833305 2.891863 7.598049 3.827165 11.519358 0.881067 3.714602 2.732228 4.91187 6.469342 4.555759 3.877307-0.369414 7.817036-0.082888 11.734252-0.082888 0.085958 0.416486 0.167822 0.830925 0.251733 1.245364-3.605108 2.650363-7.137561 5.414313-10.852162 7.907087-2.036379 1.367137-2.418073 2.65855-1.539053 4.983501 1.612731 4.273327 2.807952 8.704243 4.181229 13.069667-0.310062 0.197498-0.618077 0.397043-0.925069 0.595564-3.643993-2.628874-7.374968-5.143137-10.893094-7.928576-2.025123-1.604544-3.551896-1.639337-5.588275-0.01842-3.514033 2.791579-7.247054 5.308913-10.891048 7.942903-0.316202-0.199545-0.633427-0.400113-0.953721-0.595564 1.191128-3.710508 2.160199-7.517207 3.63376-11.109012 1.490957-3.624551 1.143033-6.074346-2.560312-8.153704-3.298116-1.854231-6.196119-4.425799-9.272177-6.681166C514.957867 210.851219 515.045871 210.43064 515.131829 210.013131zM515.190157 384.89923c4.195555 0 8.400321-0.189312 12.577456 0.061398 3.086291 0.186242 4.577249-0.906649 5.368264-3.904936 1.081635-4.074805 2.62785-8.025791 3.975545-12.027941 0.367367-0.032746 0.73985-0.067538 1.105171-0.102331 1.343601 3.929496 2.963495 7.7935 3.948939 11.812023 0.837064 3.429099 2.594081 4.450359 5.949502 4.225231 4.027733-0.271176 8.086166-0.063445 12.137435-0.063445 0.090051 0.428765 0.176009 0.860601 0.26606 1.288343-3.078105 2.261507-5.969968 4.850471-9.279341 6.689353-3.747347 2.083451-4.003174 4.556783-2.537799 8.16496 1.467421 3.603061 2.442632 7.404644 3.635807 11.118222-0.316202 0.192382-0.635473 0.384763-0.953721 0.578168-3.6399-2.642177-7.362688-5.175883-10.886955-7.956206-2.052752-1.61887-3.631714-1.529843-5.640464 0.045025-3.527336 2.769067-7.236821 5.308913-10.870582 7.941879-0.305969-0.205685-0.611937-0.409322-0.918929-0.617054 1.339508-4.245697 2.466168-8.583492 4.091178-12.722766 1.033539-2.63092 0.549515-4.101411-1.763157-5.614881-3.619434-2.372024-7.024997-5.065366-10.518564-7.623631C514.982426 385.758808 515.08578 385.327996 515.190157 384.89923zM548.617477 488.267483c1.560542 3.603061 2.520403 7.467065 3.745301 11.218506-0.297782 0.239454-0.589424 0.477884-0.881067 0.717338-3.5038-2.49789-7.14677-4.826935-10.463306-7.552-2.402723-1.977028-4.195555-2.006703-6.607488-0.01842-3.267417 2.695389-6.865361 4.990664-11.237949 7.004531 0.937348-3.166109 1.818415-6.353708 2.830465-9.496282 2.176572-6.77531 2.200108-6.762007-3.685949-11.033287-2.26867-1.64957-4.533246-3.309372-6.78145-4.987594-0.186242-0.13917-0.237407-0.450255-0.876973-1.752924 4.839215 0 9.063423-0.193405 13.258978 0.065492 2.946099 0.181125 4.351098-0.889253 5.142114-3.675716 1.174756-4.154623 2.702552-8.211009 4.078899-12.30935 0.37146 0 0.74599 0 1.119497 0 1.381463 4.091178 2.908236 8.142447 4.085038 12.288884 0.785899 2.769067 2.158153 3.882424 5.120624 3.696182 4.199649-0.261966 8.42795-0.065492 12.639878-0.065492 0.148379 0.419556 0.293689 0.840134 0.442068 1.261737-3.128247 2.291183-6.106068 4.838192-9.425673 6.810103C547.738457 482.449987 547.056935 484.674655 548.617477 488.267483zM549.76665 306.576397c-1.948375 1.327228-2.596128 2.51631-1.662873 4.931313 1.648546 4.276397 2.832512 8.732895 4.210905 13.115716-0.293689 0.222057-0.587378 0.448208-0.883113 0.670266-3.607154-2.602268-7.324826-5.069459-10.782577-7.862062-2.178619-1.75804-3.77907-1.699712-5.932106 0.034792-3.397377 2.739391-7.055696 5.15644-11.532661 7.247054 0.935302-3.163039 1.807159-6.345522 2.822278-9.487072 2.176572-6.751774 2.202155-6.736425-3.677762-11.004635-2.455935-1.783623-4.892427-3.590781-7.341199-5.386684 0.048095-0.463558 0.102331-0.926092 0.151449-1.391696 2.889817 0 5.776563 0.048095 8.664334-0.010233 9.753131-0.189312 7.190773 1.616824 10.640338-8.071839 0.918929-2.594081 1.801019-5.203512 2.702552-7.80271 0.391926 0.00307 0.781806 0.004093 1.172709 0.004093 1.375324 4.140297 2.864234 8.247848 4.080945 12.432147 0.7552 2.589988 2.074242 3.653203 4.856611 3.505847 4.313236-0.225127 8.650007-0.058328 12.979616-0.058328 0.102331 0.411369 0.205685 0.826831 0.310062 1.240247C556.961516 301.329906 553.446459 304.071344 549.76665 306.576397zM566.833351 166.264745c4.055362 0 8.124028-0.191358 12.166087 0.060375 3.252067 0.200568 4.808516-0.89437 5.590322-4.14746 0.955768-3.989871 2.566452-7.824199 4.91494-11.94096 1.25355 3.5345 2.870374 6.989181 3.659343 10.623965 0.935302 4.288676 2.962471 5.994528 7.416923 5.487991 3.621481-0.410346 7.324826-0.083911 10.988262-0.083911 0.094144 0.457418 0.184195 0.917906 0.276293 1.376347-3.533476 2.583848-7.005554 5.253654-10.624988 7.712659-1.928932 1.312902-2.623757 2.543939-1.715061 4.939499 1.595334 4.174066 2.76395 8.506744 4.113691 12.774955-0.297782 0.267083-0.593518 0.534166-0.8913 0.799202-3.279696-2.303462-6.739495-4.3951-9.781784-6.975878-2.744507-2.330068-4.854565-2.409886-7.622608-0.044002-3.115967 2.663666-6.631024 4.860704-10.836813 6.749728 1.310855-4.222161 2.312672-8.578376 4.030803-12.630668 1.239224-2.919493 0.347924-4.399193-1.914606-5.956665-3.441379-2.376117-6.769171-4.925173-10.147104-7.399527C566.581618 167.161161 566.707484 166.712953 566.833351 166.264745zM599.518774 442.672028c1.581008 4.180206 2.76395 8.511861 4.116761 12.783141-0.295735 0.292666-0.595564 0.582261-0.8913 0.874927-2.706645-1.913583-5.426593-3.805676-8.112772-5.739724-5.525853-3.984754-5.514597-3.984754-10.982122-0.048095-2.759857 1.989307-5.558599 3.937682-9.140171 5.311982 1.283226-4.140297 2.260483-8.410554 3.959172-12.376888 1.310855-3.069919 0.381693-4.611018-2.072195-6.237051-3.38612-2.242064-6.599302-4.752234-9.883091-7.147794 0.169869-0.452301 0.343831-0.906649 0.5137-1.358951 4.095271 0 8.196683-0.149403 12.281721 0.048095 2.87856 0.143263 4.367471-0.791016 5.130857-3.693112 1.101077-4.189416 2.684132-8.251941 4.065596-12.371772 0.354064-0.037862 0.709151-0.082888 1.063215-0.124843 1.2689 3.687996 2.809999 7.308453 3.730974 11.07422 0.939395 3.821025 2.665713 5.603625 6.853082 5.151323 3.759627-0.404206 7.594979-0.083911 11.396561-0.083911 0.125867 0.384763 0.251733 0.772596 0.3776 1.160429-3.560082 2.629897-7.049556 5.366218-10.712993 7.841595C599.247598 439.066921 598.621335 440.296935 599.518774 442.672028zM651.681808 488.756623c1.421372 3.351328 2.216481 6.968715 3.291976 10.470469-0.331551 0.261966-0.667196 0.533143-0.99977 0.797156-3.495614-2.527566-7.093559-4.924149-10.446933-7.622608-2.153036-1.733481-3.815909-1.762133-5.982248-0.044002-3.472078 2.75474-7.15905 5.243421-10.756995 7.845689-0.274246-0.24764-0.543376-0.494257-0.817622-0.738827 1.245364-4.02978 2.174526-8.198729 3.843538-12.046361 1.394766-3.225461 0.356111-4.882194-2.212388-6.583952-3.309372-2.190899-6.443759-4.64581-9.651824-6.984065 0.069585-0.494257 0.140193-0.986467 0.207731-1.482771 2.7486 0 5.500271 0 8.248871 0 8.098445 0 8.098445 0 10.646478-7.525394 0.923022-2.735297 1.853208-5.472642 2.780323-8.207939 0.381693-0.059352 0.759293-0.109494 1.143033-0.168846 1.169639 3.278673 2.426259 6.528694 3.483334 9.844206 1.924839 6.040576 1.870604 6.057973 8.06263 6.057973 3.411703 0 6.825452 0 10.237155 0 0.157589 0.413416 0.312108 0.826831 0.469698 1.240247-2.973728 2.238994-5.756097 4.819772-8.975419 6.618744C650.346393 482.412125 650.067031 484.97039 651.681808 488.756623zM651.235646 400.128073c1.396813 3.807722 2.541893 7.712659 3.791349 11.577686-0.404206 0.23843-0.809435 0.478907-1.215688 0.721431-2.675946-1.921769-5.330402-3.872191-8.02886-5.758144-5.980201-4.167926-4.151553-4.626367-10.400884-0.082888-2.841721 2.067079-5.734608 4.067642-8.601912 6.098905-0.270153-0.229221-0.543376-0.453325-0.819668-0.679475 1.300622-4.14746 2.364861-8.387018 3.975545-12.406564 1.136893-2.849908 0.381693-4.393054-1.992377-5.958712-3.423983-2.257413-6.661723-4.801353-9.977235-7.220449 0.054235-0.446162 0.109494-0.887206 0.167822-1.332345 2.476401-0.063445 4.954849-0.174985 7.43125-0.180102 8.880251-0.021489 8.890484-0.005117 11.751648-8.256034 0.859577-2.485611 1.658779-4.992711 2.486634-7.490601 0.411369-0.065492 0.817622-0.135076 1.226944-0.202615 0.873903 2.52245 1.77646 5.033643 2.610454 7.568373 2.753717 8.370645 2.746554 8.372691 11.648294 8.372691 2.550079 0 5.100158 0 7.653307 0 0.092098 0.452301 0.184195 0.906649 0.277316 1.357927-3.287883 2.421142-6.441713 5.059226-9.905604 7.192819C650.432351 395.223367 650.172431 397.24849 651.235646 400.128073zM653.458267 305.872363c-3.124154 1.859347-3.235694 4.064572-2.124384 7.010671 1.085728 2.871397 2.025123 5.794983 2.948145 8.725732 0.297782 0.947582 0.335644 1.973958 0.677429 4.160763-3.76372-2.701528-6.867408-4.51278-9.457396-6.884804-3.455705-3.165086-6.330172-3.403516-9.876951-0.081864-2.631944 2.466168-5.873778 4.284583-8.844435 6.39464-0.277316-0.234337-0.555655-0.466628-0.831948-0.700965 1.360997-4.275373 2.610454-8.591679 4.137227-12.809747 0.817622-2.2656 0.475837-3.675716-1.585101-5.060249-3.623527-2.433422-7.058766-5.152347-10.5728-7.749498 0.065492-0.477884 0.12996-0.954745 0.195451-1.431605 2.90619 0 5.808286 0 8.708336 0 7.731078 0 7.724938 0 10.117428-7.204076 0.949628-2.861164 1.920746-5.715165 2.885723-8.573259 0.375553-0.049119 0.751107-0.100284 1.127683-0.148379 1.176802 3.289929 2.436492 6.54916 3.511987 9.872858 2.408863 7.459902 1.51347 5.864568 8.096399 6.036483 3.518127 0.090051 7.04137 0.01535 10.56052 0.01535 0.083911 0.415462 0.169869 0.835018 0.257873 1.251503C660.095431 301.115012 656.953881 303.790958 653.458267 305.872363zM653.614833 218.316238c-3.214205 1.929955-3.457752 4.136204-2.222621 7.315616 1.417279 3.667529 2.450818 7.483438 3.651157 11.233855-0.331551 0.26913-0.663102 0.540306-0.995677 0.809435-3.371794-2.427282-6.909363-4.666276-10.075473-7.345292-2.520403-2.13871-4.386914-2.112104-6.91141-0.00307-3.231601 2.703575-6.831592 4.971222-10.272971 7.42511-0.268106-0.295735-0.535189-0.590448-0.807389-0.886183 1.335415-4.176113 2.518357-8.410554 4.059456-12.509918 0.931209-2.469238 0.429789-3.90289-1.74269-5.347798-3.603061-2.400676-7.005554-5.103228-10.490935-7.67889 0.11768-0.437975 0.234337-0.87902 0.352017-1.320065 4.193509 0 8.392134-0.106424 12.583596 0.037862 2.807952 0.098237 4.386914-0.711198 5.124717-3.718695 1.004887-4.106528 2.610454-8.065699 3.959172-12.088316 0.3776-0.074701 0.757247-0.149403 1.134847-0.226151 0.88516 2.495844 1.769296 4.994758 2.65241 7.491625 3.64604 10.304693 0.973164 8.243755 11.600199 8.492418 2.610454 0.061398 5.226025 0.010233 7.838525 0.010233 0.121773 0.400113 0.243547 0.801249 0.36532 1.200338C660.161946 213.605959 657.062352 216.247112 653.614833 218.316238zM109.961926 648.908136c266.059612-0.008186 532.114107-0.00614 798.171672-0.008186 6.972808-20.061918 12.475126-40.808428 16.372899-62.107523-276.974195-0.002047-553.947368 0-830.921563-0.008186C97.48373 608.089475 102.987071 628.840078 109.961926 648.908136zM178.941973 773.753539c179.144076 0 358.289176 0 537.434276 0 40.924061 0 81.85017 0 122.775254 0 15.451924-19.340487 29.246091-40.058344 41.158399-61.945841-247.52856 0-495.02642 0-742.523257 0C149.695882 733.695195 163.49005 754.413052 178.941973 773.753539zM246.275521 841.006246c0.277316 0.220011 0.551562 0.440022 0.828878 0.660032 3.64604 2.889817 7.339152 5.720282 11.079336 8.490372 0.268106 0.199545 0.537236 0.398066 0.805342 0.595564 3.773953 2.78237 7.594979 5.502317 11.464099 8.15882 0.234337 0.159636 0.467651 0.321318 0.701988 0.481977 3.920286 2.682086 7.887644 5.300726 11.901051 7.852852 0.177032 0.11154 0.357134 0.226151 0.535189 0.337691 4.081968 2.587941 8.212032 5.108345 12.388145 7.559163 0.096191 0.056282 0.193405 0.113587 0.291642 0.169869 4.259 2.494821 8.563026 4.91494 12.915148 7.263427 0.007163 0.004093 0.01535 0.008186 0.023536 0.014326 11.030218 5.948479 22.353101 11.420097 33.94102 16.389272 110.594841 0 221.192751 0 331.787592 0 0.004093-0.002047 0.00614-0.004093 0.010233-0.004093 11.576663-4.965082 22.886243-10.428513 33.903158-16.368806 0.021489-0.01228 0.046049-0.025583 0.065492-0.037862 4.334725-2.338255 8.626471-4.751211 12.867052-7.234775 0.115634-0.065492 0.230244-0.134053 0.345877-0.201591 4.158716-2.440585 8.274454-4.950755 12.342096-7.528464 0.192382-0.121773 0.385786-0.243547 0.579191-0.36532 3.997034-2.541893 7.951089-5.152347 11.856026-7.823176 0.249687-0.171915 0.499373-0.343831 0.74906-0.5137 3.855818-2.650363 7.66661-5.362124 11.43033-8.134261 0.276293-0.203638 0.551562-0.407276 0.827855-0.611937 3.737114-2.768043 7.427156-5.596462 11.06808-8.484232 0.276293-0.217964 0.549515-0.437975 0.823761-0.655939 1.798972-1.432629 3.587712-2.876514 5.360078-4.336772-178.751127 0-357.500207 0-536.25031-0.004093C242.691903 838.129732 244.479619 839.572594 246.275521 841.006246z" fill="#1296db" p-id="4129"></path></svg>